Coordinates
version=1
nRows=19
nColumns=36
inDegrees=yes

Units are S.I. units (second, meters, Newtons, ...)
If the header above contains a line with 'inDegrees', this indicates whether rotational values are in degrees (yes) or radians (no).

endheader
time	pelvis_tilt	pelvis_list	pelvis_rotation	pelvis_tx	pelvis_ty	pelvis_tz	hip_flexion_r	hip_adduction_r	hip_rotation_r	knee_angle_r	knee_angle_r_beta	ankle_angle_r	subtalar_angle_r	mtp_angle_r	hip_flexion_l	hip_adduction_l	hip_rotation_l	knee_angle_l	knee_angle_l_beta	ankle_angle_l	subtalar_angle_l	mtp_angle_l	lumbar_extension	lumbar_bending	lumbar_rotation	arm_flex_r	arm_add_r	arm_rot_r	elbow_flex_r	pro_sup_r	arm_flex_l	arm_add_l	arm_rot_l	elbow_flex_l	pro_sup_l
      0.00000000	     -6.79976570	     -0.30611083	    -12.19475408	      1.11175376	      0.90750142	     -0.37906378	      4.50716192	     -5.75204564	     -6.71238627	      0.65022751	      0.01134861	      2.45761541	     -3.34048124	     -5.71510843	      2.30866901	    -11.05350125	     -5.05938950	      0.22681423	      0.00395866	      6.15601554	     -1.27014557	     -5.71510843	      1.27791963	      1.99506302	     -3.11525365	     39.55621070	     -4.99310528	     45.61920009	    123.03628790	     76.78052236	     37.38978653	     -0.93189169	     64.09299949	    114.93066464	     90.41118944
      0.01666670	     -5.56164668	      0.82163959	    -13.30305124	      1.11612497	      0.90913936	     -0.37280558	      3.81984541	     -7.28915829	     -8.29608658	      1.06774456	      0.01863566	      3.81728111	     -0.12894790	     -6.12375035	      0.81773879	     -9.77125596	     -6.58072820	      0.28060019	      0.00489740	      4.10691221	     -3.30908271	     -6.12375035	     -0.72619517	      1.04594209	     -0.23944687	     41.63172687	     -6.17426062	     53.65634325	    129.24585012	     91.66605530	     38.26851077	     -1.58784679	     64.59589948	    118.65395812	    102.37422033
      0.03333330	     -5.30866630	      0.58439359	    -12.68836904	      1.12069991	      0.91027618	     -0.36837344	      3.19904663	     -6.94308971	     -8.76285153	      1.36026568	      0.02374111	      4.04937695	      0.17879454	     -6.62901129	      0.33925709	    -10.08330966	     -6.25533974	      0.36127791	      0.00630549	      4.13111334	     -3.49564650	     -6.62901129	     -0.47754373	      0.86048446	     -1.31054883	     40.84238903	     -3.97007032	     52.90665343	    129.90810138	     97.94564219	     37.75255917	     -2.19506572	     63.21439620	    119.27209011	    106.15313956
      0.05000000	     -5.20132171	      0.59087493	    -12.24098991	      1.12003845	      0.90928871	     -0.36922413	      2.99959185	     -7.07740498	     -9.35512461	      1.58249096	      0.02761968	      4.40646509	      0.94729749	     -6.92753094	      0.29551576	    -10.12360738	     -6.58704721	      0.43436255	      0.00758106	      4.13768225	     -3.49272186	     -6.92753094	     -0.41507560	      0.57978689	     -2.13908146	     40.73334656	     -2.65296527	     53.75924303	    129.57426045	    100.38979648	     37.47833734	     -2.53098814	     62.45312820	    119.55161263	    106.18268546
      0.06666670	     -5.20527781	      0.52378072	    -11.93421538	      1.11966829	      0.90946733	     -0.36995902	      2.86863149	     -7.02876114	     -9.28680578	      1.71950573	      0.03001104	      4.46101506	      0.95565664	     -6.92809261	      0.31046468	    -10.25994919	     -6.59765076	      0.46521809	      0.00811959	      4.16662941	     -3.47777185	     -6.92809261	     -0.36587397	      0.43877808	     -2.10141571	     40.67270945	     -2.46562709	     53.84374395	    129.56290160	    100.40009236	     37.52438402	     -2.47368823	     62.40677195	    119.53593108	    106.17208783
      0.08333330	     -5.11540630	      0.47891247	    -11.68746880	      1.11920698	      0.90953403	     -0.37046696	      2.82806492	     -7.04537931	     -9.24920897	      2.08119531	      0.03632371	      4.87589968	      0.63656493	     -7.00755660	      0.23810541	    -10.33842606	     -6.66576272	      0.46553467	      0.00812511	      4.44000197	     -2.73916615	     -7.00755660	     -0.56915729	      0.42810244	     -2.55319625	     40.50736892	     -1.56051313	     54.85130852	    128.88943569	     98.15923504	     37.56751870	     -2.38106018	     61.97341794	    119.22352966	    102.52523072
      0.10000000	     -5.24626050	      0.43189561	    -11.46112102	      1.11332608	      0.90927043	     -0.36756357	      2.98826456	     -6.94375251	     -9.33236281	      2.24632197	      0.03920571	      5.13909452	      0.55712667	     -7.01111266	      0.50598564	    -10.51541020	     -6.60642480	      0.48346523	      0.00843806	      4.55370438	     -2.46454529	     -7.01111266	     -0.66771122	      0.43605761	     -2.51351163	     40.54722943	     -1.05190245	     55.24527084	    128.77647142	     98.28653011	     37.95800015	     -2.36697083	     61.67662499	    119.34450530	    102.53274857
      0.11666670	     -5.36768620	      0.41119509	    -11.34322052	      1.11340000	      0.90908701	     -0.36782892	      3.14593613	     -6.86055453	     -9.31928673	      2.36858998	      0.04133969	      5.42094749	      0.52114145	     -7.16357057	      0.73269533	    -10.62978064	     -6.82205879	      0.49670157	      0.00866908	      4.68850040	     -1.91898754	     -7.16357057	     -0.75858153	      0.58810559	     -3.22291663	     41.40312359	     -0.16627072	     56.72233801	    127.95840102	     98.87916737	     37.82396693	     -2.91019068	     61.44877715	    120.27222808	    101.64424430
      0.13333330	     -5.41086842	      0.35207069	    -11.22490610	      1.11355832	      0.90915975	     -0.36806206	      3.16466936	     -6.72937525	     -9.17114155	      2.36381171	      0.04125630	      5.44238614	     -0.03306757	     -7.23327485	      0.86160795	    -10.75695341	     -6.98569276	      0.49238854	      0.00859380	      4.79207761	     -1.45418435	     -7.23327485	     -0.94605273	      0.60486498	     -3.00110093	     41.90316005	     -0.10177815	     57.21903499	    128.17706846	     95.19745247	     38.38809235	     -2.83966313	     62.02494059	    120.44703177	     97.51485287
      0.15000000	     -5.55601591	      0.31163903	    -11.12619476	      1.11356389	      0.90886954	     -0.36826677	      3.28987037	     -6.60212465	     -9.17050559	      2.31628953	      0.04042688	      5.50197784	     -0.22570234	     -7.31509910	      1.09634416	    -10.86273584	     -7.09059654	      0.48948312	      0.00854309	      4.79703270	     -1.21615355	     -7.31509910	     -0.92744450	      0.60991348	     -2.87400815	     42.11172057	     -0.33617721	     57.26139407	    128.45703128	     98.53631611	     38.80361197	     -2.81710257	     62.43914687	    120.44525696	    100.62240704
      0.16666670	     -5.63238452	      0.24890918	    -11.00025676	      1.11373414	      0.90886633	     -0.36855063	      3.29296420	     -6.46469303	     -9.18890385	      2.22670595	      0.03886335	      5.61429338	     -0.38687508	     -7.38098000	      1.24830967	    -10.96108663	     -7.06354829	      0.48085039	      0.00839242	      4.74348397	     -1.16144432	     -7.38098000	     -0.91544830	      0.65519296	     -2.80376802	     42.20369600	     -0.55153974	     57.28040386	    128.73929388	     98.16124706	     38.90701758	     -2.58646297	     62.68946450	    120.40702877	     99.98773488
      0.18333330	     -5.71731398	      0.18745737	    -10.93884275	      1.11361248	      0.90861016	     -0.36871385	      3.32577937	     -6.32883824	     -9.13303854	      2.14259637	      0.03739536	      5.69626767	     -0.54681030	     -7.39979234	      1.37967734	    -11.05859418	     -7.22249293	      0.46553298	      0.00812508	      4.81916823	     -0.88202974	     -7.39979234	     -0.86818996	      0.71511051	     -2.71528868	     42.40792354	     -0.62866866	     57.04806254	    129.05246451	     97.86467404	     38.96338242	     -2.40061924	     62.85851033	    120.44495789	     99.74271328
      0.20000000	     -5.69905041	      0.12776262	    -10.90056313	      1.11360469	      0.90858551	     -0.36892003	      3.25582870	     -6.22654292	     -9.12713241	      2.07265649	      0.03617468	      5.82144993	     -0.56391158	     -7.40822390	      1.38320282	    -11.11802829	     -7.22933197	      0.44543827	      0.00777436	      4.79232115	     -0.93425588	     -7.40822390	     -0.90196090	      0.76417052	     -2.68252487	     42.60225120	     -0.59784628	     57.26151253	    129.41436652	     96.30664730	     39.00043512	     -2.24943965	     62.95361484	    120.39327008	     98.15712685
      0.21666670	     -5.77129267	      0.06446478	    -10.76811808	      1.11349854	      0.90821225	     -0.36915481	      3.25919489	     -6.11694393	     -9.21801063	      2.00506075	      0.03499491	      5.92364601	     -0.66970657	     -7.41725062	      1.50638964	    -11.19796019	     -7.01678330	      0.43310121	      0.00755904	      4.74737250	     -1.13988451	     -7.41725062	     -0.79898549	      0.82727091	     -2.75198622	     42.73469962	     -0.57669479	     57.57102301	    129.65312912	     94.26029642	     38.92085313	     -2.17579347	     63.04645808	    120.37393961	     95.96531542
      0.23333330	     -5.79267727	      0.01142315	    -10.72695467	      1.11366677	      0.90801825	     -0.36924727	      3.23133769	     -6.02789608	     -9.16232706	      1.96224458	      0.03424763	      5.98381521	     -0.86588003	     -7.44945768	      1.55021467	    -11.25750054	     -7.08923231	      0.42477122	      0.00741366	      4.85113908	     -1.03384959	     -7.44945768	     -0.85018816	      0.88928539	     -2.52760506	     42.95109160	     -0.42677455	     57.56001763	    129.90492262	     97.41511335	     39.03950440	     -1.93944736	     63.17715820	    120.25480838	     98.88277198
      0.25000000	     -5.74004926	     -0.03117033	    -10.66135452	      1.11343474	      0.90795116	     -0.36937727	      3.12233100	     -5.97804875	     -9.20337247	      1.92681657	      0.03362929	      6.10374889	     -0.96775188	     -7.45592700	      1.52109008	    -11.28123644	     -6.98597197	      0.41215497	      0.00719346	      4.91910180	     -1.12569233	     -7.45592700	     -0.94038444	      0.94227039	     -2.30621973	     43.14257732	     -0.45158337	     57.86321374	    129.91633454	     96.35583136	     39.14369367	     -1.83278120	     63.42984581	    120.08420961	     97.67610880
      0.26666670	     -5.68218505	     -0.08501565	    -10.55242730	      1.11362867	      0.90564803	     -0.37011626	      3.00134481	     -5.93483180	     -9.43806620	      1.89612898	      0.03309369	      6.28036677	     -0.78706489	     -7.46278010	      1.49255582	    -11.30695009	     -6.81390392	      0.40207999	      0.00701762	      4.92617811	     -1.30607812	     -7.46278010	     -0.98612790	      1.00988458	     -2.38206318	     43.42661472	     -0.24529645	     57.70449342	    130.20103894	     94.50698682	     39.33569506	     -1.66427484	     63.37563111	    120.18332578	     95.73450201
      0.28333330	     -5.69446518	     -0.08686283	    -10.60494443	      1.11345567	      0.90553499	     -0.37000688	      3.03471118	     -5.91908525	     -9.16641982	      1.92953956	      0.03367682	      6.25384587	     -1.19551728	     -7.46551923	      1.51197531	    -11.31926442	     -7.02154838	      0.40767193	      0.00711522	      5.04955094	     -1.05787068	     -7.46551923	     -0.98442009	      1.05359202	     -2.23377842	     43.51565956	     -0.34425356	     57.36371354	    130.25578520	     93.09371470	     39.37655646	     -1.60801011	     63.36644263	    120.30232551	     94.29672178
      0.30000000	     -5.70756952	     -0.12329146	    -10.51126530	      1.11362419	      0.90580043	     -0.37021388	      3.03252518	     -5.88908804	     -9.35340542	      1.97469964	      0.03446501	      6.36271428	     -1.17518860	     -7.47621872	      1.57338280	    -11.35774267	     -6.84716835	      0.41697662	      0.00727761	      4.98656891	     -1.27305935	     -7.47621872	     -1.00294149	      1.09048408	     -2.21762976	     43.51971533	     -0.41243181	     57.32297552	    130.27458422	     96.89148658	     39.38412926	     -1.55560184	     63.31716839	    120.11445362	     98.01685704
